# xmcd
#
# Track frame offsets:
#	150
#	15196
#	29983
#	38453
#	52684
#	62893
#	74218
#	90483
#	98139
#	112880
#	122591
#	134445
#	143579
#
# Disc length: 2125 seconds
# Revision: 0
# Processed by: cddbd v1.5.2PL0 Copyright (c) Steve Scherf et al.
# Submitted via: dBpowerAMP V12.0
#
DISCID=a9084b0d
DTITLE=Lynda Dawson and Pattie Hopkins - Traditional Duets
DYEAR=2014
DGENRE=Country
TTITLE0=Long Time Gone
TTITLE1=A Distant Land to Roam
TTITLE2=Train on the Island
TTITLE3=Sittin' Alone in the Moonlight
TTITLE4=Red Rocking Chair
TTITLE5=I Ain't Gonna Work Tomorrow
TTITLE6=Your Long Journey
TTITLE7=Cheyenne
TTITLE8=Cold Rain and Snow
TTITLE9=Blues in My Mind
TTITLE10=Dark as the Night, Blue as the Day
TTITLE11=Bonaparte's Retreat
TTITLE12=Beautiful Hills of Galilee
EXTD=
EXTT0=
EXTT1=
EXTT2=
EXTT3=
EXTT4=
EXTT5=
EXTT6=
EXTT7=
EXTT8=
EXTT9=
EXTT10=
EXTT11=
EXTT12=
PLAYORDER=
